<svg width="183" height="183" viewBox="0 0 183 183" fill="none" xmlns="http://www.w3.org/2000/svg">
<circle cx="91.5" cy="91.5" r="91.5" fill="#1B1919"/>
<circle cx="91.5" cy="91.5" r="67" stroke="#B8B8B8" stroke-opacity="0.2" stroke-width="5"/>
<circle cx="91.5" cy="91.5" r="69.25" stroke="white" stroke-width="0.5"/>
<circle cx="91.5" cy="91.5" r="83.5" stroke="white" stroke-width="2"/>
<path d="M126.39 87.0932C134.758 88.9628 141 96.4075 141 105.321C141 115.637 132.616 124 122.274 124H61.7264C51.3842 124 43 116.655 43 106.339C43 97.5092 49.1417 90.1145 57.3753 88.1615C56.8733 86.6592 56.5888 85.0401 56.5888 83.3708C56.5888 75.058 63.333 68.331 71.667 68.331C75.8005 68.331 79.5492 69.9836 82.2602 72.671C85.9252 64.6086 94.0751 59 103.53 59C116.416 59 126.876 69.4327 126.876 82.2858C126.876 83.9384 126.374 87.0932 126.374 87.0932H126.39Z" fill="white" stroke="white" stroke-width="6" stroke-linecap="round" stroke-linejoin="round"/>
</svg>
