<?xml version="1.0" encoding="UTF-8"?>
<svg id="Layer_2" data-name="Layer 2" xmlns="http://www.w3.org/2000/svg" viewBox="0 0 61.56 57.64">
  <defs>
    <style>
      .cls-1 {
        fill: #fff;
      }

      .cls-1, .cls-2 {
        stroke: #fff;
        stroke-linecap: round;
        stroke-linejoin: round;
      }

      .cls-2 {
        fill: none;
        stroke-width: 3px;
      }
    </style>
  </defs>
  <g id="Layer_1-2" data-name="Layer 1">
    <g>
      <path class="cls-2" d="M51.33,18.33c5,1.12,8.73,5.58,8.73,10.92,0,6.18-5.01,11.19-11.19,11.19H12.69c-6.18,0-11.19-4.4-11.19-10.58,0-5.29,3.67-9.72,8.59-10.89-.3-.9-.47-1.87-.47-2.87,0-4.98,4.03-9.01,9.01-9.01,2.47,0,4.71,.99,6.33,2.6h0c2.19-4.83,7.06-8.19,12.71-8.19,7.7,0,13.95,6.25,13.95,13.95,0,.99-.3,2.88-.3,2.88h0Z"/>
      <path class="cls-1" d="M19.51,48.23c0,1.05-.85,1.91-1.91,1.91s-1.91-.85-1.91-1.91,.85-1.91,1.91-1.91,1.91,.85,1.91,1.91Z"/>
      <path class="cls-1" d="M33.31,48.23c0,1.05-.85,1.91-1.91,1.91s-1.91-.85-1.91-1.91,.85-1.91,1.91-1.91,1.91,.85,1.91,1.91Z"/>
      <path class="cls-1" d="M47.1,48.23c0,1.05-.85,1.91-1.91,1.91s-1.91-.85-1.91-1.91,.85-1.91,1.91-1.91,1.91,.85,1.91,1.91Z"/>
      <path class="cls-1" d="M26.51,55.23c0,1.05-.85,1.91-1.91,1.91s-1.91-.85-1.91-1.91,.85-1.91,1.91-1.91,1.91,.85,1.91,1.91Z"/>
      <path class="cls-1" d="M40.31,55.23c0,1.05-.85,1.91-1.91,1.91s-1.91-.85-1.91-1.91,.85-1.91,1.91-1.91,1.91,.85,1.91,1.91Z"/>
    </g>
  </g>
</svg>